<svg width="520" height="76" viewBox="0 0 520 76" fill="none" xmlns="http://www.w3.org/2000/svg">
<path d="M52.2043 17.832C66.1562 17.96 77.9963 26.28 77.9963 41.768C77.9963 57.256 66.1562 65.64 52.2043 65.704C43.6923 65.704 35.1803 65.704 26.6683 65.704C12.7163 65.64 0.87625 57.256 0.87625 41.768C0.87625 26.28 12.7163 17.96 26.6683 17.832C29.7403 17.832 44.3323 17.832 52.2043 17.832ZM49.0043 54.824C56.7483 54.824 64.4283 51.24 64.4283 41.768C64.4283 32.296 56.7483 28.776 49.0043 28.776C42.6043 28.776 36.2683 28.648 29.8683 28.776C22.1243 28.776 14.4443 32.296 14.4443 41.768C14.4443 51.24 22.1243 54.824 29.8683 54.824C36.2043 54.824 42.6683 54.888 49.0043 54.824ZM94.8998 50.6V65H81.8438C81.8438 49.512 81.8438 34.024 81.8438 18.6C100.148 18.6 118.516 18.6 136.884 18.6C147.38 18.664 153.972 23.784 153.972 34.6C153.972 42.472 150.452 47.336 144.436 49.384L154.228 65H138.804L130.356 50.536C118.516 50.6 106.74 50.6 94.8998 50.6ZM94.8998 28.712V40.424C108.084 40.424 121.204 40.424 134.388 40.424C138.548 40.424 140.404 38.632 140.404 34.6C140.404 30.568 138.548 28.712 134.388 28.712C121.204 28.712 108.084 28.712 94.8998 28.712ZM229.71 54.824V65C205.838 65 181.966 65 158.094 65C158.094 49.512 158.094 34.024 158.094 18.6H229.71V28.712C210.19 28.712 190.67 28.712 171.15 28.712V36.712C189.71 36.712 208.206 36.712 226.766 36.712V46.824C208.206 46.824 189.71 46.824 171.15 46.824V54.824C190.67 54.824 210.19 54.824 229.71 54.824Z" fill="#FF4F00"/>
<path d="M266.47 55.656V54.44H281.318C285.2 54.44 287.142 52.5413 287.142 48.744C287.142 44.904 285.606 42.728 282.534 42.216L274.47 40.872C269.136 39.976 266.47 37.2027 266.47 32.552C266.47 26.8773 269.542 24.04 275.686 24.04H286.758L288.55 25.384V26.6H275.238C271.312 26.6 269.35 28.4987 269.35 32.296C269.35 35.5813 270.971 37.5013 274.214 38.056L282.278 39.4C287.483 40.2533 290.086 43.2613 290.086 48.424C290.086 54.1413 286.992 57 280.806 57H268.262L266.47 55.656ZM299.053 47.848V33.192C299.053 27.0907 302.104 24.04 308.205 24.04H317.165C323.224 24.04 326.253 27.0907 326.253 33.192V47.848C326.253 53.9493 323.224 57 317.165 57H308.205C302.104 57 299.053 53.9493 299.053 47.848ZM301.933 48.488C301.933 52.456 303.917 54.44 307.885 54.44H317.421C321.389 54.44 323.373 52.456 323.373 48.488V32.552C323.373 28.584 321.389 26.6 317.421 26.6H307.885C303.917 26.6 301.933 28.584 301.933 32.552V48.488ZM336.628 57V18.792C336.628 12.6907 339.678 9.64 345.78 9.64H351.22L353.012 10.984V12.2H345.46C341.492 12.2 339.508 14.184 339.508 18.152V24.04H352.372V26.6H339.508V57H336.628ZM359.497 47.848V12.84H362.377V24.04H375.241V26.6H362.377V48.488C362.377 52.456 364.361 54.44 368.329 54.44H375.881V55.656L374.089 57H368.649C362.547 57 359.497 53.9493 359.497 47.848ZM379.788 24.68L380.236 24.04H382.54L390.348 54.44H391.5L400.78 24.04H404.236L413.516 54.44H414.732L422.54 24.04H424.78L425.228 24.68L416.844 57H411.596L402.508 27.048L393.42 57H388.236L379.788 24.68ZM439.052 57C432.908 57 429.836 53.8853 429.836 47.656C429.836 41.4267 432.908 38.312 439.052 38.312H452.492V32.552C452.492 28.584 450.508 26.6 446.54 26.6H432.78V25.384L434.572 24.04H446.284C452.342 24.04 455.372 27.0907 455.372 33.192V57H439.052ZM432.716 48.488C432.716 52.456 434.7 54.44 438.668 54.44H452.492V40.872H438.668C434.7 40.872 432.716 42.856 432.716 46.824V48.488ZM465.747 57V27.56C467.197 25.2133 469.821 24.04 473.619 24.04H479.699L481.491 25.384V26.6H473.299C471.165 26.6 469.608 27.176 468.627 28.328V57H465.747ZM488.053 47.848V33.192C488.053 27.0907 491.104 24.04 497.205 24.04H505.525C511.584 24.04 514.613 27.0907 514.613 33.192V41.704H490.933V48.488C490.933 52.456 492.917 54.44 496.885 54.44H513.333V55.656L511.541 57H497.205C491.104 57 488.053 53.9493 488.053 47.848ZM490.933 39.144H511.733V32.552C511.733 28.584 509.749 26.6 505.781 26.6H496.885C492.917 26.6 490.933 28.584 490.933 32.552V39.144Z" fill="white"/>
</svg>
