<svg width="889" height="138" viewBox="0 0 889 138" fill="none" xmlns="http://www.w3.org/2000/svg">
<path d="M89.0542 32.93C113.034 33.15 133.384 47.45 133.384 74.07C133.384 100.69 113.034 115.1 89.0542 115.21C74.4242 115.21 59.7942 115.21 45.1642 115.21C21.1842 115.1 0.83418 100.69 0.83418 74.07C0.83418 47.45 21.1842 33.15 45.1642 32.93C50.4442 32.93 75.5242 32.93 89.0542 32.93ZM83.5542 96.51C96.8642 96.51 110.064 90.35 110.064 74.07C110.064 57.79 96.8642 51.74 83.5542 51.74C72.5542 51.74 61.6642 51.52 50.6642 51.74C37.3542 51.74 24.1542 57.79 24.1542 74.07C24.1542 90.35 37.3542 96.51 50.6642 96.51C61.5542 96.51 72.6642 96.62 83.5542 96.51ZM162.437 89.25V114H139.997C139.997 87.38 139.997 60.76 139.997 34.25C171.457 34.25 203.027 34.25 234.597 34.25C252.637 34.36 263.967 43.16 263.967 61.75C263.967 75.28 257.917 83.64 247.577 87.16L264.407 114H237.897L223.377 89.14C203.027 89.25 182.787 89.25 162.437 89.25ZM162.437 51.63V71.76C185.097 71.76 207.647 71.76 230.307 71.76C237.457 71.76 240.647 68.68 240.647 61.75C240.647 54.82 237.457 51.63 230.307 51.63C207.647 51.63 185.097 51.63 162.437 51.63ZM394.142 96.51V114C353.112 114 312.082 114 271.052 114C271.052 87.38 271.052 60.76 271.052 34.25H394.142V51.63C360.592 51.63 327.042 51.63 293.492 51.63V65.38C325.392 65.38 357.182 65.38 389.082 65.38V82.76C357.182 82.76 325.392 82.76 293.492 82.76V96.51C327.042 96.51 360.592 96.51 394.142 96.51Z" fill="white"/>
<path d="M447.182 98.14V94.95H472.702C478.568 94.95 481.502 92.0167 481.502 86.15C481.502 80.2833 479.155 76.9833 474.462 76.25L461.042 73.94C451.802 72.4 447.182 67.5233 447.182 59.31C447.182 49.1167 452.608 44.02 463.462 44.02H482.052L485.792 46.88V50.18H463.022C457.082 50.18 454.112 53.0767 454.112 58.87C454.112 64.0033 456.568 66.9733 461.482 67.78L475.012 70.09C483.958 71.5567 488.432 76.7633 488.432 85.71C488.432 95.9033 483.005 101 472.152 101H450.922L447.182 98.14ZM503.397 84.83V60.19C503.397 49.41 508.787 44.02 519.567 44.02H534.967C545.674 44.02 551.027 49.41 551.027 60.19V84.83C551.027 95.61 545.674 101 534.967 101H519.567C508.787 101 503.397 95.61 503.397 84.83ZM510.327 85.93C510.327 91.9433 513.334 94.95 519.347 94.95H535.187C541.127 94.95 544.097 91.9433 544.097 85.93V59.09C544.097 53.15 541.127 50.18 535.187 50.18H519.347C513.334 50.18 510.327 53.15 510.327 59.09V85.93ZM568.3 101V35.77C568.3 24.99 573.69 19.6 584.47 19.6H594.15L597.89 22.46V25.65H584.25C578.237 25.65 575.23 28.6567 575.23 34.67V44.02H596.79V50.18H575.23V101H568.3ZM608.681 84.83V25.1H615.611V44.02H637.171V50.18H615.611V85.93C615.611 91.9433 618.617 94.95 624.631 94.95H638.271V98.14L634.531 101H624.851C614.071 101 608.681 95.61 608.681 84.83ZM644.85 45.45L645.84 44.02H651.45L663.99 94.95H665.75L680.71 44.02H688.74L703.59 94.95H705.46L718 44.02H723.61L724.49 45.45L710.63 101H698.97L684.67 51.72L670.48 101H658.82L644.85 45.45ZM748.434 101C737.581 101 732.154 95.5733 732.154 84.72C732.154 73.7933 737.581 68.33 748.434 68.33H769.994V59.09C769.994 53.15 767.024 50.18 761.084 50.18H737.434V46.88L741.284 44.02H760.864C771.571 44.02 776.924 49.41 776.924 60.19V101H748.434ZM739.084 85.93C739.084 91.9433 742.091 94.95 748.104 94.95H769.994V74.16H748.104C742.091 74.16 739.084 77.13 739.084 83.07V85.93ZM794.198 101V50.4C796.765 46.1467 801.421 44.02 808.168 44.02H818.948L822.688 46.88V50.18H808.498C805.125 50.18 802.668 51.0967 801.128 52.93V101H794.198ZM833.719 84.83V60.19C833.719 49.41 839.109 44.02 849.889 44.02H864.189C874.896 44.02 880.249 49.41 880.249 60.19V75.26H840.649V85.93C840.649 91.9433 843.656 94.95 849.669 94.95H878.049V98.14L874.309 101H849.889C839.109 101 833.719 95.61 833.719 84.83ZM840.649 69.43H873.319V59.09C873.319 53.15 870.349 50.18 864.409 50.18H849.669C843.656 50.18 840.649 53.15 840.649 59.09V69.43Z" fill="#FF4F00"/>
</svg>
