<svg width="230" height="49" viewBox="0 0 230 49" fill="none" xmlns="http://www.w3.org/2000/svg">
<path d="M52.2043 0.831997C66.1562 0.959999 77.9963 9.28 77.9963 24.768C77.9963 40.256 66.1562 48.64 52.2043 48.704C43.6923 48.704 35.1803 48.704 26.6683 48.704C12.7163 48.64 0.87625 40.256 0.87625 24.768C0.87625 9.28 12.7163 0.959999 26.6683 0.831997C29.7403 0.831997 44.3323 0.831997 52.2043 0.831997ZM49.0043 37.824C56.7483 37.824 64.4283 34.24 64.4283 24.768C64.4283 15.296 56.7483 11.776 49.0043 11.776C42.6043 11.776 36.2683 11.648 29.8683 11.776C22.1243 11.776 14.4443 15.296 14.4443 24.768C14.4443 34.24 22.1243 37.824 29.8683 37.824C36.2043 37.824 42.6683 37.888 49.0043 37.824ZM94.8998 33.6V48H81.8438C81.8438 32.512 81.8438 17.024 81.8438 1.6C100.148 1.6 118.516 1.6 136.884 1.6C147.38 1.664 153.972 6.784 153.972 17.6C153.972 25.472 150.452 30.336 144.436 32.384L154.228 48H138.804L130.356 33.536C118.516 33.6 106.74 33.6 94.8998 33.6ZM94.8998 11.712V23.424C108.084 23.424 121.204 23.424 134.388 23.424C138.548 23.424 140.404 21.632 140.404 17.6C140.404 13.568 138.548 11.712 134.388 11.712C121.204 11.712 108.084 11.712 94.8998 11.712ZM229.71 37.824V48C205.838 48 181.966 48 158.094 48C158.094 32.512 158.094 17.024 158.094 1.6H229.71V11.712C210.19 11.712 190.67 11.712 171.15 11.712V19.712C189.71 19.712 208.206 19.712 226.766 19.712V29.824C208.206 29.824 189.71 29.824 171.15 29.824V37.824C190.67 37.824 210.19 37.824 229.71 37.824Z" fill="#FFD300"/>
</svg>
