<svg width="1885" height="222" viewBox="0 0 1885 222" fill="none" xmlns="http://www.w3.org/2000/svg">
<path d="M0.523048 169.2V67.8C0.523048 32.6 18.123 15 53.3231 15H120.523C155.723 15 173.323 32.6 173.323 67.8V169.2C173.323 204.4 155.723 222 120.523 222H53.3231C18.123 222 0.523048 204.4 0.523048 169.2ZM52.7231 171.6C52.7231 173.8 53.8231 174.9 56.0231 174.9H117.823C120.023 174.9 121.123 173.8 121.123 171.6V65.4C121.123 63.2 120.023 62.1 117.823 62.1H56.0231C53.8231 62.1 52.7231 63.2 52.7231 65.4V171.6ZM212.897 222V84C220.497 69.6 235.297 62.4 257.297 62.4H290.897L311.897 78V105.9H272.297C267.497 105.9 264.397 107 262.997 109.2V222H212.897ZM337.674 171.6V112.8C337.674 79.2 354.474 62.4 388.074 62.4H427.074C460.674 62.4 477.474 79.2 477.474 112.8V160.5H387.774V174.6C387.774 177.2 389.074 178.5 391.674 178.5H471.474V206.4L450.474 222H388.074C354.474 222 337.674 205.2 337.674 171.6ZM387.774 122.7H427.374V109.8C427.374 107.2 426.074 105.9 423.474 105.9H391.674C389.074 105.9 387.774 107.2 387.774 109.8V122.7ZM581.925 204V174.9H675.225C677.425 174.9 678.525 173.8 678.525 171.6V151.2C678.525 148.4 677.325 146.8 674.925 146.4L619.425 135C594.425 130.2 581.925 113.5 581.925 84.9V67.8C581.925 32.6 599.525 15 634.725 15H701.325L724.725 33V62.1H637.425C635.225 62.1 634.125 63.2 634.125 65.4V84.6C634.125 87.2 635.325 88.8 637.725 89.4L693.225 100.2C718.225 105.4 730.725 122.2 730.725 150.6V169.2C730.725 204.4 713.125 222 677.925 222H605.325L581.925 204ZM763.064 171.6V112.8C763.064 79.2 779.864 62.4 813.464 62.4H855.464C889.064 62.4 905.864 79.2 905.864 112.8V171.6C905.864 205.2 889.064 222 855.464 222H813.464C779.864 222 763.064 205.2 763.064 171.6ZM813.164 174.6C813.164 177.2 814.464 178.5 817.064 178.5H851.864C854.464 178.5 855.764 177.2 855.764 174.6V109.8C855.764 107.2 854.464 105.9 851.864 105.9H817.064C814.464 105.9 813.164 107.2 813.164 109.8V174.6ZM944.175 222V50.4C944.175 16.8 960.975 -2.86102e-06 994.575 -2.86102e-06H1025.18L1046.18 15.6V43.5H998.175C995.575 43.5 994.275 44.8 994.275 47.4V62.4H1043.18V105.9H994.275V222H944.175ZM1071.3 171.6V15H1121.4V62.4H1170.3V105.9H1121.4V174.6C1121.4 177.2 1122.7 178.5 1125.3 178.5H1173.3V206.4L1152.3 222H1121.7C1088.1 222 1071.3 205.2 1071.3 171.6ZM1190.52 69.6L1195.62 62.4H1237.92L1258.02 178.5H1259.22L1283.52 62.4H1338.72L1363.02 178.5H1364.22L1384.32 62.4H1426.62L1431.72 69.6L1402.32 222H1328.82L1311.12 123L1293.42 222H1219.92L1190.52 69.6ZM1497.41 222C1463.81 222 1447.01 205.7 1447.01 173.1C1447.01 140.5 1463.81 124.2 1497.41 124.2H1531.91V109.8C1531.91 107.2 1530.61 105.9 1528.01 105.9H1464.71V78L1485.71 62.4H1531.61C1565.21 62.4 1582.01 79.2 1582.01 112.8V222H1497.41ZM1497.11 174.6C1497.11 177.2 1498.41 178.5 1501.01 178.5H1531.91V162H1501.01C1498.41 162 1497.11 163.3 1497.11 165.9V174.6ZM1620.32 222V84C1627.92 69.6 1642.72 62.4 1664.72 62.4H1698.32L1719.32 78V105.9H1679.72C1674.92 105.9 1671.82 107 1670.42 109.2V222H1620.32ZM1745.1 171.6V112.8C1745.1 79.2 1761.9 62.4 1795.5 62.4H1834.5C1868.1 62.4 1884.9 79.2 1884.9 112.8V160.5H1795.2V174.6C1795.2 177.2 1796.5 178.5 1799.1 178.5H1878.9V206.4L1857.9 222H1795.5C1761.9 222 1745.1 205.2 1745.1 171.6ZM1795.2 122.7H1834.8V109.8C1834.8 107.2 1833.5 105.9 1830.9 105.9H1799.1C1796.5 105.9 1795.2 107.2 1795.2 109.8V122.7Z" fill="white"/>
</svg>
