<svg width="403" height="198" viewBox="0 0 403 198" fill="none" xmlns="http://www.w3.org/2000/svg">
<path d="M89.0542 29.93C113.034 30.15 133.384 44.45 133.384 71.07C133.384 97.69 113.034 112.1 89.0542 112.21C74.4242 112.21 59.7942 112.21 45.1642 112.21C21.1842 112.1 0.83418 97.69 0.83418 71.07C0.83418 44.45 21.1842 30.15 45.1642 29.93C50.4442 29.93 75.5242 29.93 89.0542 29.93ZM83.5542 93.51C96.8642 93.51 110.064 87.35 110.064 71.07C110.064 54.79 96.8642 48.74 83.5542 48.74C72.5542 48.74 61.6642 48.52 50.6642 48.74C37.3542 48.74 24.1542 54.79 24.1542 71.07C24.1542 87.35 37.3542 93.51 50.6642 93.51C61.5542 93.51 72.6642 93.62 83.5542 93.51ZM162.437 86.25V111H139.997C139.997 84.38 139.997 57.76 139.997 31.25C171.457 31.25 203.027 31.25 234.597 31.25C252.637 31.36 263.967 40.16 263.967 58.75C263.967 72.28 257.917 80.64 247.577 84.16L264.407 111H237.897L223.377 86.14C203.027 86.25 182.787 86.25 162.437 86.25ZM162.437 48.63V68.76C185.097 68.76 207.647 68.76 230.307 68.76C237.457 68.76 240.647 65.68 240.647 58.75C240.647 51.82 237.457 48.63 230.307 48.63C207.647 48.63 185.097 48.63 162.437 48.63ZM394.142 93.51V111C353.112 111 312.082 111 271.052 111C271.052 84.38 271.052 57.76 271.052 31.25H394.142V48.63C360.592 48.63 327.042 48.63 293.492 48.63V62.38C325.392 62.38 357.182 62.38 389.082 62.38V79.76C357.182 79.76 325.392 79.76 293.492 79.76V93.51C327.042 93.51 360.592 93.51 394.142 93.51Z" fill="white"/>
<path d="M70.389 173.672V167.72H85.109C85.7917 167.72 86.133 167.251 86.133 166.312C86.133 165.331 85.813 164.776 85.173 164.648L78.645 163.56C73.141 162.621 70.389 159.357 70.389 153.768C70.389 146.557 73.973 142.952 81.141 142.952H90.677L95.157 146.28V152.232H81.973C81.2903 152.232 80.949 152.701 80.949 153.64C80.949 154.877 81.2903 155.539 81.973 155.624L88.501 156.712C93.9623 157.608 96.693 160.765 96.693 166.184C96.693 173.395 93.109 177 85.941 177H74.869L70.389 173.672ZM103.715 166.248V153.704C103.715 146.536 107.299 142.952 114.467 142.952H123.427C130.595 142.952 134.179 146.536 134.179 153.704V166.248C134.179 173.416 130.595 177 123.427 177H114.467C107.299 177 103.715 173.416 103.715 166.248ZM114.403 166.888C114.403 167.443 114.68 167.72 115.235 167.72H122.659C123.214 167.72 123.491 167.443 123.491 166.888V153.064C123.491 152.509 123.214 152.232 122.659 152.232H115.235C114.68 152.232 114.403 152.509 114.403 153.064V166.888ZM142.352 177V140.392C142.352 133.224 145.936 129.64 153.104 129.64H159.632L164.112 132.968V138.92H153.872C153.317 138.92 153.04 139.197 153.04 139.752V142.952H163.472V152.232H153.04V177H142.352ZM169.471 166.248V132.84H180.159V142.952H190.591V152.232H180.159V166.888C180.159 167.443 180.436 167.72 180.991 167.72H191.231V173.672L186.751 177H180.223C173.055 177 169.471 173.416 169.471 166.248ZM194.907 144.488L195.995 142.952H205.019L209.307 167.72H209.562L214.747 142.952H226.523L231.707 167.72H231.963L236.251 142.952H245.275L246.363 144.488L240.091 177H224.411L220.635 155.88L216.859 177H201.179L194.907 144.488ZM260.375 177C253.207 177 249.623 173.523 249.623 166.568C249.623 159.613 253.207 156.136 260.375 156.136H267.735V153.064C267.735 152.509 267.457 152.232 266.903 152.232H253.399V146.28L257.879 142.952H267.671C274.839 142.952 278.423 146.536 278.423 153.704V177H260.375ZM260.311 166.888C260.311 167.443 260.588 167.72 261.143 167.72H267.735V164.2H261.143C260.588 164.2 260.311 164.477 260.311 165.032V166.888ZM286.596 177V147.56C288.217 144.488 291.375 142.952 296.068 142.952H303.236L307.716 146.28V152.232H299.268C298.244 152.232 297.583 152.467 297.284 152.936V177H286.596ZM313.215 166.248V153.704C313.215 146.536 316.799 142.952 323.967 142.952H332.287C339.455 142.952 343.039 146.536 343.039 153.704V163.88H323.903V166.888C323.903 167.443 324.18 167.72 324.735 167.72H341.759V173.672L337.279 177H323.967C316.799 177 313.215 173.416 313.215 166.248ZM323.903 155.816H332.351V153.064C332.351 152.509 332.074 152.232 331.519 152.232H324.735C324.18 152.232 323.903 152.509 323.903 153.064V155.816Z" fill="#FF4F00"/>
</svg>
