<svg width="558" height="207" viewBox="0 0 558 207" fill="none" xmlns="http://www.w3.org/2000/svg">
<path d="M0.56211 154.2V52.8C0.56211 17.6 18.1621 -1.71661e-05 53.3621 -1.71661e-05H120.562C155.762 -1.71661e-05 173.362 17.6 173.362 52.8V154.2C173.362 189.4 155.762 207 120.562 207H53.3621C18.1621 207 0.56211 189.4 0.56211 154.2ZM52.7621 156.6C52.7621 158.8 53.8621 159.9 56.0621 159.9H117.862C120.062 159.9 121.162 158.8 121.162 156.6V50.4C121.162 48.2 120.062 47.1 117.862 47.1H56.0621C53.8621 47.1 52.7621 48.2 52.7621 50.4V156.6ZM217.136 207V-1.71661e-05H319.136C354.336 -1.71661e-05 371.936 17.6 371.936 52.8V87.6C371.936 112 363.536 128 346.736 135.6L377.936 196.5L371.936 207H326.936L292.736 140.1H269.336V207H217.136ZM269.336 93H316.436C318.636 93 319.736 91.9 319.736 89.7V50.4C319.736 48.2 318.636 47.1 316.436 47.1H269.336V93ZM412.839 207V-1.71661e-05H557.739V47.1H465.039V78H548.739V125.1H465.039V159.9H557.739V207H412.839Z" fill="white"/>
</svg>
