<svg width="1000" height="1000" viewBox="0 0 1000 1000" fill="none" xmlns="http://www.w3.org/2000/svg">
<g clip-path="url(#clip0_9_6)">
<mask id="path-2-outside-1_9_6" maskUnits="userSpaceOnUse" x="142" y="254" width="716" height="495" fill="black">
<rect fill="white" x="142" y="254" width="716" height="495"/>
<path d="M191.118 433L286.868 285.5H216.118V314.5H196.118V265.5H312.618V285.5L216.868 433H292.618V404H312.618V453H191.118V433ZM346.294 290.5H465.294V339.5H445.294V310.5H386.794V361.75H445.294V381.75H386.794V433H445.294V404H465.294V453H346.294V433H363.794V310.5H346.294V290.5ZM505.229 290.5H605.229L631.23 318V368L605.979 394.5L629.23 433H642.479V453H597.98V433H604.98L582.479 395.5H545.729V433H560.729V453H505.229V433H522.729V310.5H505.229V290.5ZM595.229 374L609.729 359.25V326.75L595.479 312H545.729V374H595.229ZM706.034 453L680.034 425.5V318L706.034 290.5H776.534L802.534 318V425.5L776.534 453H706.034ZM715.784 431.5H766.534L779.534 418.25V325.25L766.784 312H716.034L703.034 325.25V418.25L715.784 431.5ZM153.057 550.5H204.057L251.307 689.5L298.557 550.5H349.557V570.5H332.057V718H349.557V738H291.557V718H309.057V583.75L262.307 718H240.307L193.557 583.75V718H211.057V738H153.057V718H170.557V570.5H153.057V550.5ZM477.129 738V718H493.629L482.879 687H420.379L409.629 718H426.379V738H373.379V718H386.629L428.879 595.5H418.379V575.5H485.129V595.5H474.379L516.629 718H530.129V738H477.129ZM451.629 596.25L427.129 667H476.129L451.629 596.25ZM632.926 738H559.926V718H584.926V595.5H550.426V624.5H531.426V575.5H661.426V624.5H642.426V595.5H607.926V718H632.926V738ZM688.945 575.5H746.945V595.5H729.445V646.75H806.445V595.5H788.945V575.5H846.945V595.5H829.445V718H846.945V738H788.945V718H806.445V666.75H729.445V718H746.945V738H688.945V718H706.445V595.5H688.945V575.5Z"/>
</mask>
<path d="M191.118 433L286.868 285.5H216.118V314.5H196.118V265.5H312.618V285.5L216.868 433H292.618V404H312.618V453H191.118V433ZM346.294 290.5H465.294V339.5H445.294V310.5H386.794V361.75H445.294V381.75H386.794V433H445.294V404H465.294V453H346.294V433H363.794V310.5H346.294V290.5ZM505.229 290.5H605.229L631.23 318V368L605.979 394.5L629.23 433H642.479V453H597.98V433H604.98L582.479 395.5H545.729V433H560.729V453H505.229V433H522.729V310.5H505.229V290.5ZM595.229 374L609.729 359.25V326.75L595.479 312H545.729V374H595.229ZM706.034 453L680.034 425.5V318L706.034 290.5H776.534L802.534 318V425.5L776.534 453H706.034ZM715.784 431.5H766.534L779.534 418.25V325.25L766.784 312H716.034L703.034 325.25V418.25L715.784 431.5ZM153.057 550.5H204.057L251.307 689.5L298.557 550.5H349.557V570.5H332.057V718H349.557V738H291.557V718H309.057V583.75L262.307 718H240.307L193.557 583.75V718H211.057V738H153.057V718H170.557V570.5H153.057V550.5ZM477.129 738V718H493.629L482.879 687H420.379L409.629 718H426.379V738H373.379V718H386.629L428.879 595.5H418.379V575.5H485.129V595.5H474.379L516.629 718H530.129V738H477.129ZM451.629 596.25L427.129 667H476.129L451.629 596.25ZM632.926 738H559.926V718H584.926V595.5H550.426V624.5H531.426V575.5H661.426V624.5H642.426V595.5H607.926V718H632.926V738ZM688.945 575.5H746.945V595.5H729.445V646.75H806.445V595.5H788.945V575.5H846.945V595.5H829.445V718H846.945V738H788.945V718H806.445V666.75H729.445V718H746.945V738H688.945V718H706.445V595.5H688.945V575.5Z" fill="white"/>
<path d="M191.118 433L181.892 427.011L180.118 429.743V433H191.118ZM286.868 285.5L296.095 291.489L307.123 274.5H286.868V285.5ZM216.118 285.5V274.5H205.118V285.5H216.118ZM216.118 314.5V325.5H227.118V314.5H216.118ZM196.118 314.5H185.118V325.5H196.118V314.5ZM196.118 265.5V254.5H185.118V265.5H196.118ZM312.618 265.5H323.618V254.5H312.618V265.5ZM312.618 285.5L321.845 291.489L323.618 288.757V285.5H312.618ZM216.868 433L207.642 427.011L196.613 444H216.868V433ZM292.618 433V444H303.618V433H292.618ZM292.618 404V393H281.618V404H292.618ZM312.618 404H323.618V393H312.618V404ZM312.618 453V464H323.618V453H312.618ZM191.118 453H180.118V464H191.118V453ZM191.118 433L200.345 438.989L296.095 291.489L286.868 285.5L277.642 279.511L181.892 427.011L191.118 433ZM286.868 285.5V274.5H216.118V285.5V296.5H286.868V285.5ZM216.118 285.5H205.118V314.5H216.118H227.118V285.5H216.118ZM216.118 314.5V303.5H196.118V314.5V325.5H216.118V314.5ZM196.118 314.5H207.118V265.5H196.118H185.118V314.5H196.118ZM196.118 265.5V276.5H312.618V265.5V254.5H196.118V265.5ZM312.618 265.5H301.618V285.5H312.618H323.618V265.5H312.618ZM312.618 285.5L303.392 279.511L207.642 427.011L216.868 433L226.095 438.989L321.845 291.489L312.618 285.5ZM216.868 433V444H292.618V433V422H216.868V433ZM292.618 433H303.618V404H292.618H281.618V433H292.618ZM292.618 404V415H312.618V404V393H292.618V404ZM312.618 404H301.618V453H312.618H323.618V404H312.618ZM312.618 453V442H191.118V453V464H312.618V453ZM191.118 453H202.118V433H191.118H180.118V453H191.118ZM346.294 290.5V279.5H335.294V290.5H346.294ZM465.294 290.5H476.294V279.5H465.294V290.5ZM465.294 339.5V350.5H476.294V339.5H465.294ZM445.294 339.5H434.294V350.5H445.294V339.5ZM445.294 310.5H456.294V299.5H445.294V310.5ZM386.794 310.5V299.5H375.794V310.5H386.794ZM386.794 361.75H375.794V372.75H386.794V361.75ZM445.294 361.75H456.294V350.75H445.294V361.75ZM445.294 381.75V392.75H456.294V381.75H445.294ZM386.794 381.75V370.75H375.794V381.75H386.794ZM386.794 433H375.794V444H386.794V433ZM445.294 433V444H456.294V433H445.294ZM445.294 404V393H434.294V404H445.294ZM465.294 404H476.294V393H465.294V404ZM465.294 453V464H476.294V453H465.294ZM346.294 453H335.294V464H346.294V453ZM346.294 433V422H335.294V433H346.294ZM363.794 433V444H374.794V433H363.794ZM363.794 310.5H374.794V299.5H363.794V310.5ZM346.294 310.5H335.294V321.5H346.294V310.5ZM346.294 290.5V301.5H465.294V290.5V279.5H346.294V290.5ZM465.294 290.5H454.294V339.5H465.294H476.294V290.5H465.294ZM465.294 339.5V328.5H445.294V339.5V350.5H465.294V339.5ZM445.294 339.5H456.294V310.5H445.294H434.294V339.5H445.294ZM445.294 310.5V299.5H386.794V310.5V321.5H445.294V310.5ZM386.794 310.5H375.794V361.75H386.794H397.794V310.5H386.794ZM386.794 361.75V372.75H445.294V361.75V350.75H386.794V361.75ZM445.294 361.75H434.294V381.75H445.294H456.294V361.75H445.294ZM445.294 381.75V370.75H386.794V381.75V392.75H445.294V381.75ZM386.794 381.75H375.794V433H386.794H397.794V381.75H386.794ZM386.794 433V444H445.294V433V422H386.794V433ZM445.294 433H456.294V404H445.294H434.294V433H445.294ZM445.294 404V415H465.294V404V393H445.294V404ZM465.294 404H454.294V453H465.294H476.294V404H465.294ZM465.294 453V442H346.294V453V464H465.294V453ZM346.294 453H357.294V433H346.294H335.294V453H346.294ZM346.294 433V444H363.794V433V422H346.294V433ZM363.794 433H374.794V310.5H363.794H352.794V433H363.794ZM363.794 310.5V299.5H346.294V310.5V321.5H363.794V310.5ZM346.294 310.5H357.294V290.5H346.294H335.294V310.5H346.294ZM505.229 290.5V279.5H494.229V290.5H505.229ZM605.229 290.5L613.223 282.943L609.968 279.5H605.229V290.5ZM631.229 318H642.229V313.623L639.223 310.443L631.229 318ZM631.229 368L639.193 375.588L642.229 372.401V368H631.229ZM605.979 394.5L598.016 386.912L592.22 392.994L596.563 400.186L605.979 394.5ZM629.229 433L619.813 438.686L623.022 444H629.229V433ZM642.479 433H653.479V422H642.479V433ZM642.479 453V464H653.479V453H642.479ZM597.979 453H586.979V464H597.979V453ZM597.979 433V422H586.979V433H597.979ZM604.979 433V444H624.408L614.412 427.341L604.979 433ZM582.479 395.5L591.912 389.841L588.708 384.5H582.479V395.5ZM545.729 395.5V384.5H534.729V395.5H545.729ZM545.729 433H534.729V444H545.729V433ZM560.729 433H571.729V422H560.729V433ZM560.729 453V464H571.729V453H560.729ZM505.229 453H494.229V464H505.229V453ZM505.229 433V422H494.229V433H505.229ZM522.729 433V444H533.729V433H522.729ZM522.729 310.5H533.729V299.5H522.729V310.5ZM505.229 310.5H494.229V321.5H505.229V310.5ZM595.229 374V385H599.841L603.074 381.711L595.229 374ZM609.729 359.25L617.574 366.961L620.729 363.751V359.25H609.729ZM609.729 326.75H620.729V322.304L617.641 319.107L609.729 326.75ZM595.479 312L603.391 304.357L600.147 301H595.479V312ZM545.729 312V301H534.729V312H545.729ZM545.729 374H534.729V385H545.729V374ZM505.229 290.5V301.5H605.229V290.5V279.5H505.229V290.5ZM605.229 290.5L597.236 298.057L623.236 325.557L631.229 318L639.223 310.443L613.223 282.943L605.229 290.5ZM631.229 318H620.229V368H631.229H642.229V318H631.229ZM631.229 368L623.266 360.412L598.016 386.912L605.979 394.5L613.943 402.088L639.193 375.588L631.229 368ZM605.979 394.5L596.563 400.186L619.813 438.686L629.229 433L638.646 427.314L615.396 388.814L605.979 394.5ZM629.229 433V444H642.479V433V422H629.229V433ZM642.479 433H631.479V453H642.479H653.479V433H642.479ZM642.479 453V442H597.979V453V464H642.479V453ZM597.979 453H608.979V433H597.979H586.979V453H597.979ZM597.979 433V444H604.979V433V422H597.979V433ZM604.979 433L614.412 427.341L591.912 389.841L582.479 395.5L573.047 401.159L595.547 438.659L604.979 433ZM582.479 395.5V384.5H545.729V395.5V406.5H582.479V395.5ZM545.729 395.5H534.729V433H545.729H556.729V395.5H545.729ZM545.729 433V444H560.729V433V422H545.729V433ZM560.729 433H549.729V453H560.729H571.729V433H560.729ZM560.729 453V442H505.229V453V464H560.729V453ZM505.229 453H516.229V433H505.229H494.229V453H505.229ZM505.229 433V444H522.729V433V422H505.229V433ZM522.729 433H533.729V310.5H522.729H511.729V433H522.729ZM522.729 310.5V299.5H505.229V310.5V321.5H522.729V310.5ZM505.229 310.5H516.229V290.5H505.229H494.229V310.5H505.229ZM595.229 374L603.074 381.711L617.574 366.961L609.729 359.25L601.885 351.539L587.385 366.289L595.229 374ZM609.729 359.25H620.729V326.75H609.729H598.729V359.25H609.729ZM609.729 326.75L617.641 319.107L603.391 304.357L595.479 312L587.568 319.643L601.818 334.393L609.729 326.75ZM595.479 312V301H545.729V312V323H595.479V312ZM545.729 312H534.729V374H545.729H556.729V312H545.729ZM545.729 374V385H595.229V374V363H545.729V374ZM706.034 453L698.041 460.557L701.296 464H706.034V453ZM680.034 425.5H669.034V429.877L672.041 433.057L680.034 425.5ZM680.034 318L672.041 310.443L669.034 313.623V318H680.034ZM706.034 290.5V279.5H701.296L698.041 282.943L706.034 290.5ZM776.534 290.5L784.527 282.943L781.272 279.5H776.534V290.5ZM802.534 318H813.534V313.623L810.527 310.443L802.534 318ZM802.534 425.5L810.527 433.057L813.534 429.877V425.5H802.534ZM776.534 453V464H781.272L784.527 460.557L776.534 453ZM715.784 431.5L707.858 439.127L711.103 442.5H715.784V431.5ZM766.534 431.5V442.5H771.152L774.386 439.204L766.534 431.5ZM779.534 418.25L787.386 425.954L790.534 422.745V418.25H779.534ZM779.534 325.25H790.534V320.817L787.46 317.623L779.534 325.25ZM766.784 312L774.71 304.373L771.465 301H766.784V312ZM716.034 312V301H711.416L708.182 304.296L716.034 312ZM703.034 325.25L695.182 317.546L692.034 320.755V325.25H703.034ZM703.034 418.25H692.034V422.683L695.108 425.877L703.034 418.25ZM706.034 453L714.027 445.443L688.027 417.943L680.034 425.5L672.041 433.057L698.041 460.557L706.034 453ZM680.034 425.5H691.034V318H680.034H669.034V425.5H680.034ZM680.034 318L688.027 325.557L714.027 298.057L706.034 290.5L698.041 282.943L672.041 310.443L680.034 318ZM706.034 290.5V301.5H776.534V290.5V279.5H706.034V290.5ZM776.534 290.5L768.541 298.057L794.541 325.557L802.534 318L810.527 310.443L784.527 282.943L776.534 290.5ZM802.534 318H791.534V425.5H802.534H813.534V318H802.534ZM802.534 425.5L794.541 417.943L768.541 445.443L776.534 453L784.527 460.557L810.527 433.057L802.534 425.5ZM776.534 453V442H706.034V453V464H776.534V453ZM715.784 431.5V442.5H766.534V431.5V420.5H715.784V431.5ZM766.534 431.5L774.386 439.204L787.386 425.954L779.534 418.25L771.682 410.546L758.682 423.796L766.534 431.5ZM779.534 418.25H790.534V325.25H779.534H768.534V418.25H779.534ZM779.534 325.25L787.46 317.623L774.71 304.373L766.784 312L758.858 319.627L771.608 332.877L779.534 325.25ZM766.784 312V301H716.034V312V323H766.784V312ZM716.034 312L708.182 304.296L695.182 317.546L703.034 325.25L710.886 332.954L723.886 319.704L716.034 312ZM703.034 325.25H692.034V418.25H703.034H714.034V325.25H703.034ZM703.034 418.25L695.108 425.877L707.858 439.127L715.784 431.5L723.71 423.873L710.96 410.623L703.034 418.25ZM153.057 550.5V539.5H142.057V550.5H153.057ZM204.057 550.5L214.471 546.96L211.936 539.5H204.057V550.5ZM251.307 689.5L240.892 693.04L251.307 723.678L261.721 693.04L251.307 689.5ZM298.557 550.5V539.5H290.678L288.142 546.96L298.557 550.5ZM349.557 550.5H360.557V539.5H349.557V550.5ZM349.557 570.5V581.5H360.557V570.5H349.557ZM332.057 570.5V559.5H321.057V570.5H332.057ZM332.057 718H321.057V729H332.057V718ZM349.557 718H360.557V707H349.557V718ZM349.557 738V749H360.557V738H349.557ZM291.557 738H280.557V749H291.557V738ZM291.557 718V707H280.557V718H291.557ZM309.057 718V729H320.057V718H309.057ZM309.057 583.75H320.057L298.668 580.133L309.057 583.75ZM262.307 718V729H270.124L272.695 721.617L262.307 718ZM240.307 718L229.918 721.617L232.489 729H240.307V718ZM193.557 583.75L203.945 580.133L182.557 583.75H193.557ZM193.557 718H182.557V729H193.557V718ZM211.057 718H222.057V707H211.057V718ZM211.057 738V749H222.057V738H211.057ZM153.057 738H142.057V749H153.057V738ZM153.057 718V707H142.057V718H153.057ZM170.557 718V729H181.557V718H170.557ZM170.557 570.5H181.557V559.5H170.557V570.5ZM153.057 570.5H142.057V581.5H153.057V570.5ZM153.057 550.5V561.5H204.057V550.5V539.5H153.057V550.5ZM204.057 550.5L193.642 554.04L240.892 693.04L251.307 689.5L261.721 685.96L214.471 546.96L204.057 550.5ZM251.307 689.5L261.721 693.04L308.971 554.04L298.557 550.5L288.142 546.96L240.892 685.96L251.307 689.5ZM298.557 550.5V561.5H349.557V550.5V539.5H298.557V550.5ZM349.557 550.5H338.557V570.5H349.557H360.557V550.5H349.557ZM349.557 570.5V559.5H332.057V570.5V581.5H349.557V570.5ZM332.057 570.5H321.057V718H332.057H343.057V570.5H332.057ZM332.057 718V729H349.557V718V707H332.057V718ZM349.557 718H338.557V738H349.557H360.557V718H349.557ZM349.557 738V727H291.557V738V749H349.557V738ZM291.557 738H302.557V718H291.557H280.557V738H291.557ZM291.557 718V729H309.057V718V707H291.557V718ZM309.057 718H320.057V583.75H309.057H298.057V718H309.057ZM309.057 583.75L298.668 580.133L251.918 714.383L262.307 718L272.695 721.617L319.445 587.367L309.057 583.75ZM262.307 718V707H240.307V718V729H262.307V718ZM240.307 718L250.695 714.383L203.945 580.133L193.557 583.75L183.168 587.367L229.918 721.617L240.307 718ZM193.557 583.75H182.557V718H193.557H204.557V583.75H193.557ZM193.557 718V729H211.057V718V707H193.557V718ZM211.057 718H200.057V738H211.057H222.057V718H211.057ZM211.057 738V727H153.057V738V749H211.057V738ZM153.057 738H164.057V718H153.057H142.057V738H153.057ZM153.057 718V729H170.557V718V707H153.057V718ZM170.557 718H181.557V570.5H170.557H159.557V718H170.557ZM170.557 570.5V559.5H153.057V570.5V581.5H170.557V570.5ZM153.057 570.5H164.057V550.5H153.057H142.057V570.5H153.057ZM477.129 738H466.129V749H477.129V738ZM477.129 718V707H466.129V718H477.129ZM493.629 718V729H509.086L504.022 714.396L493.629 718ZM482.879 687L493.272 683.396L490.707 676H482.879V687ZM420.379 687V676H412.551L409.986 683.396L420.379 687ZM409.629 718L399.236 714.396L394.172 729H409.629V718ZM426.379 718H437.379V707H426.379V718ZM426.379 738V749H437.379V738H426.379ZM373.379 738H362.379V749H373.379V738ZM373.379 718V707H362.379V718H373.379ZM386.629 718V729H394.471L397.028 721.587L386.629 718ZM428.879 595.5L439.278 599.087L444.309 584.5H428.879V595.5ZM418.379 595.5H407.379V606.5H418.379V595.5ZM418.379 575.5V564.5H407.379V575.5H418.379ZM485.129 575.5H496.129V564.5H485.129V575.5ZM485.129 595.5V606.5H496.129V595.5H485.129ZM474.379 595.5V584.5H458.949L463.98 599.087L474.379 595.5ZM516.629 718L506.23 721.587L508.787 729H516.629V718ZM530.129 718H541.129V707H530.129V718ZM530.129 738V749H541.129V738H530.129ZM451.629 596.25L462.023 592.651L451.629 562.634L441.234 592.651L451.629 596.25ZM427.129 667L416.734 663.401L411.679 678H427.129V667ZM476.129 667V678H491.579L486.523 663.401L476.129 667ZM477.129 738H488.129V718H477.129H466.129V738H477.129ZM477.129 718V729H493.629V718V707H477.129V718ZM493.629 718L504.022 714.396L493.272 683.396L482.879 687L472.486 690.604L483.236 721.604L493.629 718ZM482.879 687V676H420.379V687V698H482.879V687ZM420.379 687L409.986 683.396L399.236 714.396L409.629 718L420.022 721.604L430.772 690.604L420.379 687ZM409.629 718V729H426.379V718V707H409.629V718ZM426.379 718H415.379V738H426.379H437.379V718H426.379ZM426.379 738V727H373.379V738V749H426.379V738ZM373.379 738H384.379V718H373.379H362.379V738H373.379ZM373.379 718V729H386.629V718V707H373.379V718ZM386.629 718L397.028 721.587L439.278 599.087L428.879 595.5L418.48 591.913L376.23 714.413L386.629 718ZM428.879 595.5V584.5H418.379V595.5V606.5H428.879V595.5ZM418.379 595.5H429.379V575.5H418.379H407.379V595.5H418.379ZM418.379 575.5V586.5H485.129V575.5V564.5H418.379V575.5ZM485.129 575.5H474.129V595.5H485.129H496.129V575.5H485.129ZM485.129 595.5V584.5H474.379V595.5V606.5H485.129V595.5ZM474.379 595.5L463.98 599.087L506.23 721.587L516.629 718L527.028 714.413L484.778 591.913L474.379 595.5ZM516.629 718V729H530.129V718V707H516.629V718ZM530.129 718H519.129V738H530.129H541.129V718H530.129ZM530.129 738V727H477.129V738V749H530.129V738ZM451.629 596.25L441.234 592.651L416.734 663.401L427.129 667L437.523 670.599L462.023 599.849L451.629 596.25ZM427.129 667V678H476.129V667V656H427.129V667ZM476.129 667L486.523 663.401L462.023 592.651L451.629 596.25L441.234 599.849L465.734 670.599L476.129 667ZM632.926 738V749H643.926V738H632.926ZM559.926 738H548.926V749H559.926V738ZM559.926 718V707H548.926V718H559.926ZM584.926 718V729H595.926V718H584.926ZM584.926 595.5H595.926V584.5H584.926V595.5ZM550.426 595.5V584.5H539.426V595.5H550.426ZM550.426 624.5V635.5H561.426V624.5H550.426ZM531.426 624.5H520.426V635.5H531.426V624.5ZM531.426 575.5V564.5H520.426V575.5H531.426ZM661.426 575.5H672.426V564.5H661.426V575.5ZM661.426 624.5V635.5H672.426V624.5H661.426ZM642.426 624.5H631.426V635.5H642.426V624.5ZM642.426 595.5H653.426V584.5H642.426V595.5ZM607.926 595.5V584.5H596.926V595.5H607.926ZM607.926 718H596.926V729H607.926V718ZM632.926 718H643.926V707H632.926V718ZM632.926 738V727H559.926V738V749H632.926V738ZM559.926 738H570.926V718H559.926H548.926V738H559.926ZM559.926 718V729H584.926V718V707H559.926V718ZM584.926 718H595.926V595.5H584.926H573.926V718H584.926ZM584.926 595.5V584.5H550.426V595.5V606.5H584.926V595.5ZM550.426 595.5H539.426V624.5H550.426H561.426V595.5H550.426ZM550.426 624.5V613.5H531.426V624.5V635.5H550.426V624.5ZM531.426 624.5H542.426V575.5H531.426H520.426V624.5H531.426ZM531.426 575.5V586.5H661.426V575.5V564.5H531.426V575.5ZM661.426 575.5H650.426V624.5H661.426H672.426V575.5H661.426ZM661.426 624.5V613.5H642.426V624.5V635.5H661.426V624.5ZM642.426 624.5H653.426V595.5H642.426H631.426V624.5H642.426ZM642.426 595.5V584.5H607.926V595.5V606.5H642.426V595.5ZM607.926 595.5H596.926V718H607.926H618.926V595.5H607.926ZM607.926 718V729H632.926V718V707H607.926V718ZM632.926 718H621.926V738H632.926H643.926V718H632.926ZM688.945 575.5V564.5H677.945V575.5H688.945ZM746.945 575.5H757.945V564.5H746.945V575.5ZM746.945 595.5V606.5H757.945V595.5H746.945ZM729.445 595.5V584.5H718.445V595.5H729.445ZM729.445 646.75H718.445V657.75H729.445V646.75ZM806.445 646.75V657.75H817.445V646.75H806.445ZM806.445 595.5H817.445V584.5H806.445V595.5ZM788.945 595.5H777.945V606.5H788.945V595.5ZM788.945 575.5V564.5H777.945V575.5H788.945ZM846.945 575.5H857.945V564.5H846.945V575.5ZM846.945 595.5V606.5H857.945V595.5H846.945ZM829.445 595.5V584.5H818.445V595.5H829.445ZM829.445 718H818.445V729H829.445V718ZM846.945 718H857.945V707H846.945V718ZM846.945 738V749H857.945V738H846.945ZM788.945 738H777.945V749H788.945V738ZM788.945 718V707H777.945V718H788.945ZM806.445 718V729H817.445V718H806.445ZM806.445 666.75H817.445V655.75H806.445V666.75ZM729.445 666.75V655.75H718.445V666.75H729.445ZM729.445 718H718.445V729H729.445V718ZM746.945 718H757.945V707H746.945V718ZM746.945 738V749H757.945V738H746.945ZM688.945 738H677.945V749H688.945V738ZM688.945 718V707H677.945V718H688.945ZM706.445 718V729H717.445V718H706.445ZM706.445 595.5H717.445V584.5H706.445V595.5ZM688.945 595.5H677.945V606.5H688.945V595.5ZM688.945 575.5V586.5H746.945V575.5V564.5H688.945V575.5ZM746.945 575.5H735.945V595.5H746.945H757.945V575.5H746.945ZM746.945 595.5V584.5H729.445V595.5V606.5H746.945V595.5ZM729.445 595.5H718.445V646.75H729.445H740.445V595.5H729.445ZM729.445 646.75V657.75H806.445V646.75V635.75H729.445V646.75ZM806.445 646.75H817.445V595.5H806.445H795.445V646.75H806.445ZM806.445 595.5V584.5H788.945V595.5V606.5H806.445V595.5ZM788.945 595.5H799.945V575.5H788.945H777.945V595.5H788.945ZM788.945 575.5V586.5H846.945V575.5V564.5H788.945V575.5ZM846.945 575.5H835.945V595.5H846.945H857.945V575.5H846.945ZM846.945 595.5V584.5H829.445V595.5V606.5H846.945V595.5ZM829.445 595.5H818.445V718H829.445H840.445V595.5H829.445ZM829.445 718V729H846.945V718V707H829.445V718ZM846.945 718H835.945V738H846.945H857.945V718H846.945ZM846.945 738V727H788.945V738V749H846.945V738ZM788.945 738H799.945V718H788.945H777.945V738H788.945ZM788.945 718V729H806.445V718V707H788.945V718ZM806.445 718H817.445V666.75H806.445H795.445V718H806.445ZM806.445 666.75V655.75H729.445V666.75V677.75H806.445V666.75ZM729.445 666.75H718.445V718H729.445H740.445V666.75H729.445ZM729.445 718V729H746.945V718V707H729.445V718ZM746.945 718H735.945V738H746.945H757.945V718H746.945ZM746.945 738V727H688.945V738V749H746.945V738ZM688.945 738H699.945V718H688.945H677.945V738H688.945ZM688.945 718V729H706.445V718V707H688.945V718ZM706.445 718H717.445V595.5H706.445H695.445V718H706.445ZM706.445 595.5V584.5H688.945V595.5V606.5H706.445V595.5ZM688.945 595.5H699.945V575.5H688.945H677.945V595.5H688.945Z" fill="black" mask="url(#path-2-outside-1_9_6)"/>
</g>
<defs>
<clipPath id="clip0_9_6">
<rect width="1000" height="1000" rx="20" fill="white"/>
</clipPath>
</defs>
</svg>
