<svg width="1346" height="188" viewBox="0 0 1346 188" fill="none" xmlns="http://www.w3.org/2000/svg">
<path d="M0.174806 168L95.9248 20.5H25.1748V49.5H5.17481V0.499985H121.675V20.5L25.9248 168H101.675V139H121.675V188H0.174806V168ZM155.351 25.5H274.351V74.5H254.351V45.5H195.851V96.75H254.351V116.75H195.851V168H254.351V139H274.351V188H155.351V168H172.851V45.5H155.351V25.5ZM314.286 25.5H414.286L440.286 53V103L415.036 129.5L438.286 168H451.536V188H407.036V168H414.036L391.536 130.5H354.786V168H369.786V188H314.286V168H331.786V45.5H314.286V25.5ZM404.286 109L418.786 94.25V61.75L404.536 47H354.786V109H404.286ZM515.091 188L489.091 160.5V53L515.091 25.5H585.591L611.591 53V160.5L585.591 188H515.091ZM524.841 166.5H575.591L588.591 153.25V60.25L575.841 47H525.091L512.091 60.25V153.25L524.841 166.5ZM738.938 168L692.188 53.75V168H709.688V188H651.688V168H669.188V45.5H651.688V25.5H702.688L749.938 143.75L797.188 25.5H848.188V45.5H830.688V168H848.188V188H790.188V168H807.688V53.75L760.938 168H738.938ZM975.761 188V168H992.261L981.511 137H919.011L908.261 168H925.011V188H872.011V168H885.261L927.511 45.5H917.011V25.5H983.761V45.5H973.011L1015.26 168H1028.76V188H975.761ZM950.261 46.25L925.761 117H974.761L950.261 46.25ZM1131.56 188H1058.56V168H1083.56V45.5H1049.06V74.5H1030.06V25.5H1160.06V74.5H1141.06V45.5H1106.56V168H1131.56V188ZM1187.58 25.5H1245.58V45.5H1228.08V96.75H1305.08V45.5H1287.58V25.5H1345.58V45.5H1328.08V168H1345.58V188H1287.58V168H1305.08V116.75H1228.08V168H1245.58V188H1187.58V168H1205.08V45.5H1187.58V25.5Z" fill="#7460F4"/>
</svg>
